<svg width="34" height="42" viewBox="0 0 34 42" fill="none" xmlns="http://www.w3.org/2000/svg">
<rect x="0.25" y="0.25" width="33.5" height="33.5" rx="5.75" fill="white" stroke="black" stroke-width="0.5"/>
<circle cx="17" cy="9.97779" r="7.02174" fill="#D9D9D9"/>
<path d="M29.5653 29.3804C29.5653 27.7546 29.245 26.1447 28.6228 24.6426C28.0007 23.1406 27.0887 21.7758 25.9391 20.6261C24.7895 19.4765 23.4247 18.5646 21.9226 17.9424C20.4205 17.3202 18.8106 17 17.1848 17C15.559 17 13.9491 17.3202 12.447 17.9424C10.945 18.5646 9.58016 19.4765 8.43053 20.6261C7.2809 21.7758 6.36896 23.1406 5.74679 24.6426C5.12461 26.1447 4.80438 27.7546 4.80438 29.3804L17.1848 29.3804H29.5653Z" fill="#D9D9D9"/>
</svg>
