<svg width="105" height="99" viewBox="0 0 105 99" fill="none" xmlns="http://www.w3.org/2000/svg">
<g id="&#228;&#186;&#145;&#230;&#156;&#141;&#229;&#138;&#161;&#229;&#153;&#168; 1">
<path id="Vector" d="M62.9774 37.0017V65.2167L72.7498 70.2905L77.6963 67.1967L68.5271 62.8655V40.4667L78.6614 35.7642L97.241 44.798V38.9817L78.6614 29.8242L62.9774 37.0017Z" fill="white"/>
<path id="Vector_2" d="M71.7845 49.3767V43.0654L78.6614 39.9717L102.791 51.6042V70.9092L86.8653 79.6954L83.6079 75.9829L97.4822 67.3204V54.6979L78.6614 45.7879L71.7845 49.3767Z" fill="white"/>
<path id="Vector_3" d="M59.358 47.7676L54.0496 50.9851V70.7851L72.2672 79.6951L93.6216 66.4538V56.0588L88.7957 54.0788V64.2263L72.2672 74.0026L59.358 67.1963V47.7676Z" fill="white"/>
<path id="Vector_4" d="M49.827 79.695H17.8557C8.80722 77.8388 2.05103 69.795 2.05103 60.0188C2.05103 49.5 10.1343 40.7138 20.3893 40.095C20.6306 24.255 33.2984 11.5088 48.7411 11.5088C61.0471 11.5088 69.613 15.9638 75.1627 26.73L68.8891 29.5763C64.7871 21.0375 58.2722 17.9438 48.7411 17.9438C36.5559 17.9438 26.6629 28.0913 26.6629 40.59C26.6629 41.4563 26.6629 42.1988 26.7835 43.065L27.2661 47.025L23.4054 46.53C22.9228 46.53 22.3196 46.4063 21.837 46.4063C14.4776 46.4063 8.44528 52.47 8.44528 60.0188C8.44528 67.32 14.1157 73.26 21.2338 73.6313H49.9476V79.695H49.827Z" fill="white"/>
<path id="Vector_5" d="M49.827 79.6947H17.8557C8.80722 77.8385 2.05103 69.7947 2.05103 60.0185C2.05103 49.4997 10.1343 40.7135 20.3893 40.0947C26.6629 40.5897 27.1455 47.0247 27.1455 47.0247L23.2848 46.5297C22.8022 46.5297 22.199 46.406 21.7164 46.406C14.3569 46.406 8.32463 52.4697 8.32463 60.0185C8.32463 67.3197 13.995 73.2597 21.1131 73.631H49.827V79.6947Z" fill="white"/>
</g>
</svg>
