<svg width="90" height="90" viewBox="0 0 90 90" fill="none" xmlns="http://www.w3.org/2000/svg">
<g id="&#231;&#164;&#190;&#229;&#140;&#186; 1">
<path id="Vector" d="M70.4848 9.84375C77.7193 9.84375 83.584 15.7084 83.584 22.943V63.6551C83.584 70.8195 77.7761 76.6275 70.6116 76.6275H59.555C58.304 76.6275 57.0793 76.9857 56.0255 77.6598L45.9229 84.1225C45.3903 84.4632 44.7704 84.6425 44.1382 84.6386C43.506 84.6348 42.8884 84.448 42.3599 84.1009L32.6222 77.7032C31.5541 77.0014 30.3039 76.6275 29.0259 76.6274H17.8453C10.6108 76.6274 4.74609 70.7629 4.74609 63.5282V22.943C4.74609 15.7084 10.6108 9.84375 17.8453 9.84375H70.4848ZM70.5951 15.1541H17.7535C13.5755 15.1541 10.1807 18.5071 10.1132 22.6689L10.1123 22.7953V63.7164C10.1123 67.8944 13.4653 71.2891 17.6271 71.3566L17.7535 71.3576H30.8691C32.0975 71.3576 33.3011 71.7031 34.3426 72.3546L34.3992 72.3903L42.406 77.5136C42.9209 77.8431 43.5178 78.0219 44.129 78.0297C44.7403 78.0375 45.3416 77.8741 45.8648 77.5579L45.9026 77.5346L54.2274 72.3482C55.2473 71.7128 56.4223 71.3702 57.6239 71.358L57.6907 71.3576H70.5951C74.7729 71.3576 78.1677 68.0046 78.2352 63.8428L78.2363 63.7164V22.7953C78.2363 18.5752 74.8151 15.1541 70.5951 15.1541ZM62.5522 49.5962C64.0035 49.5962 65.1801 50.7728 65.1801 52.2242C65.1801 53.6548 64.0369 54.8184 62.6143 54.8514L62.5522 54.8521H25.9717C24.5203 54.8521 23.3438 53.6755 23.3438 52.2242C23.3438 50.7936 24.4869 49.6299 25.9096 49.5969L25.9717 49.5962H62.5522ZM62.5522 31.9787C64.0035 31.9787 65.1801 33.1553 65.1801 34.6067C65.1801 36.0373 64.0369 37.2009 62.6143 37.2339L62.5522 37.2346H25.9717C24.5203 37.2346 23.3438 36.058 23.3438 34.6067C23.3438 33.1761 24.4869 32.0125 25.9096 31.9795L25.9717 31.9787H62.5522Z" fill="white"/>
</g>
</svg>
